<?xml version="1.0" standalone="no"?>
<!DOCTYPE svg PUBLIC "-//W3C//DTD SVG 20010904//EN"
 "http://www.w3.org/TR/2001/REC-SVG-20010904/DTD/svg10.dtd">
<svg version="1.0" xmlns="http://www.w3.org/2000/svg"
 width="512.000000pt" height="512.000000pt" viewBox="0 0 512.000000 512.000000"
 preserveAspectRatio="xMidYMid meet">
<metadata>
Created by potrace 1.11, written by Peter Selinger 2001-2013
</metadata>
<g transform="translate(0.000000,512.000000) scale(0.100000,-0.100000)"
fill="#000000" stroke="none">
<path d="M2778 4083 l-3 -88 -60 -5 -60 -5 0 -105 0 -105 30 -3 30 -3 -3 73
c-4 82 6 98 64 98 47 0 64 29 64 110 0 70 -16 113 -42 118 -15 3 -18 -8 -20
-85z"/>
<path d="M2350 3981 c0 -19 32 -41 60 -41 16 0 36 -3 45 -6 13 -6 16 -1 13 22
-3 28 -5 29 -60 32 -33 2 -58 -1 -58 -7z"/>
<path d="M1676 3688 c4 -7 25 -35 47 -61 l40 -48 -22 -23 c-45 -47 -19 -67 33
-24 l37 30 -27 37 c-42 57 -87 101 -102 101 -8 0 -10 -5 -6 -12z"/>
<path d="M3540 3696 c0 -2 50 -46 110 -96 74 -62 108 -96 103 -105 -5 -7 -28
-37 -53 -68 -43 -53 -71 -69 -85 -47 -10 16 -33 12 -44 -9 -8 -15 -1 -29 44
-81 165 -191 277 -432 321 -691 24 -147 15 -395 -20 -535 -45 -181 -105 -316
-209 -467 -409 -599 -1207 -780 -1840 -417 -218 124 -414 325 -536 550 -22 41
-41 71 -41 67 0 -20 85 -169 147 -257 220 -311 546 -515 934 -581 105 -18 147
-21 279 -15 85 3 186 12 225 21 251 54 490 180 678 355 179 168 311 374 385
600 54 165 67 250 66 440 -2 306 -103 604 -292 857 -29 40 -58 75 -63 79 -16
10 -10 24 12 24 32 0 53 15 97 73 68 87 65 93 -108 231 -86 68 -110 84 -110
72z"/>
<path d="M3160 3645 c0 -3 26 -18 58 -34 31 -16 84 -47 116 -70 45 -30 63 -37
73 -29 15 12 17 38 3 38 -5 0 -10 -7 -10 -15 0 -22 -6 -20 -73 26 -57 39 -167
94 -167 84z"/>
<path d="M2445 3593 c-136 -12 -315 -67 -450 -136 -231 -120 -443 -348 -548
-592 -47 -108 -84 -246 -93 -351 l-7 -77 29 7 c16 4 29 8 30 9 0 1 6 40 13 87
70 473 439 866 911 971 47 10 104 19 128 19 41 0 42 1 42 35 0 19 -3 34 -7 33
-5 -1 -26 -3 -48 -5z"/>
<path d="M2625 3591 c-3 -2 -5 -43 -5 -91 0 -104 -15 -127 -76 -117 -35 6 -35
6 -21 -16 31 -47 103 -47 134 -1 10 16 19 56 22 98 l6 71 52 -3 c128 -7 387
-101 514 -186 127 -85 280 -249 374 -401 48 -77 37 -45 -14 43 -170 291 -446
498 -766 576 -75 18 -212 35 -220 27z"/>
<path d="M1400 3453 c0 -12 65 -98 97 -126 19 -16 21 -16 48 7 24 21 27 27 15
41 -12 14 -15 14 -38 -1 -25 -17 -26 -16 -74 37 -26 30 -48 49 -48 42z"/>
<path d="M3047 2543 c-324 -165 -327 -167 -337 -204 -6 -22 -26 -51 -50 -73
-36 -33 -46 -36 -98 -36 -60 0 -99 18 -135 62 -14 17 -13 12 5 -22 51 -98 168
-128 259 -67 19 12 47 47 64 77 l30 55 272 140 c304 157 376 200 371 218 -11
32 -65 11 -381 -150z"/>
<path d="M2640 2524 c0 -2 9 -8 20 -14 11 -6 20 -7 20 -2 0 6 -9 12 -20 15
-11 3 -20 3 -20 1z"/>
<path d="M1558 2391 c6 -57 -20 -71 -125 -71 l-83 0 0 -36 c0 -54 37 -224 66
-306 100 -278 319 -534 559 -655 61 -31 52 -22 -44 42 -92 62 -235 196 -302
284 -113 150 -231 467 -218 586 4 30 4 30 82 35 67 4 82 8 98 29 25 31 24 81
-1 109 -29 31 -36 28 -32 -17z"/>
<path d="M3581 2318 c15 -35 29 -40 117 -47 l72 -6 0 28 0 27 -88 0 c-57 0
-93 4 -101 13 -10 10 -10 7 0 -15z"/>
<path d="M2618 1269 l3 -100 27 3 c27 3 27 4 26 76 -2 61 -6 77 -25 98 -12 13
-25 24 -28 24 -3 0 -5 -45 -3 -101z"/>
</g>
</svg>
